<?xml version="1.0" encoding="UTF-8" standalone="no"?>
<!-- Generator: Adobe Illustrator 19.0.0, SVG Export Plug-In . SVG Version: 6.00 Build 0)  -->

<svg
   version="1.1"
   id="Capa_1"
   x="0px"
   y="0px"
   viewBox="0 0 470 470"
   style="enable-background:new 0 0 470 470;"
   xml:space="preserve"
   sodipodi:docname="ovenmitt.svg"
   inkscape:version="1.2.2 (732a01da63, 2022-12-09)"
   xmlns:inkscape="http://www.inkscape.org/namespaces/inkscape"
   xmlns:sodipodi="http://sodipodi.sourceforge.net/DTD/sodipodi-0.dtd"
   xmlns="http://www.w3.org/2000/svg"
   xmlns:svg="http://www.w3.org/2000/svg"><defs
   id="defs45" /><sodipodi:namedview
   id="namedview43"
   pagecolor="#505050"
   bordercolor="#ffffff"
   borderopacity="1"
   inkscape:showpageshadow="0"
   inkscape:pageopacity="0"
   inkscape:pagecheckerboard="1"
   inkscape:deskcolor="#505050"
   showgrid="false"
   inkscape:zoom="2.2404255"
   inkscape:cx="235"
   inkscape:cy="234.77683"
   inkscape:window-width="2560"
   inkscape:window-height="1369"
   inkscape:window-x="-8"
   inkscape:window-y="-8"
   inkscape:window-maximized="1"
   inkscape:current-layer="Capa_1" />
<g
   id="g10">
	<path
   d="M391.202,366.144h-28.188l0-38.342c16.655-22.823,25.444-50.844,25.444-81.214V125.197C388.459,56.163,332.296,0,263.262,0   C206.434,0,157.22,38.516,142.526,91.986c-7.695-6.702-17.684-10.608-28.244-10.608c-23.702,0-42.984,19.282-42.984,42.983v122.227   c0,39.571,14.369,73.896,41.604,99.499V432.5c0,20.678,16.822,37.5,37.5,37.5h175.111c18.2,0,33.406-13.034,36.791-30.256h28.897   c4.143,0,7.5-3.358,7.5-7.5v-58.6C398.702,369.501,395.345,366.144,391.202,366.144z M325.514,455H150.402   c-12.406,0-22.5-10.093-22.5-22.5v-89.71c0-2.133-0.908-4.165-2.498-5.588c-25.583-22.903-39.106-54.237-39.106-90.614V124.361   c0-15.43,12.554-27.983,27.984-27.983c10.433,0,20.001,5.868,24.801,15.06c-0.003,12.24-0.02,85.329-0.02,111.161   c0,4.142,3.357,7.5,7.5,7.5s7.5-3.358,7.5-7.5c0-26.927,0.019-105.221,0.02-112.389C161.467,55.899,208.319,15,263.262,15   c60.763,0,110.197,49.434,110.197,110.197v121.391c0,28.378-8.045,53.338-23.912,74.185c-0.994,1.306-1.532,2.901-1.532,4.542   l-0.001,106.929v0.256C348.014,444.907,337.92,455,325.514,455z M383.702,424.744h-20.688l0-43.6h20.688V424.744z"
   id="path2" />
	<path
   d="M325.514,425H150.402c-4.143,0-7.5,3.358-7.5,7.5s3.357,7.5,7.5,7.5h175.111c4.143,0,7.5-3.358,7.5-7.5   S329.656,425,325.514,425z"
   id="path4" />
	<path
   d="M350.03,155.57l-9.697-9.697l9.697-9.697c2.929-2.929,2.929-7.678,0-10.606c-2.93-2.929-7.678-2.929-10.607,0l-9.696,9.696   l-9.696-9.696c-2.93-2.929-7.678-2.929-10.607,0c-2.929,2.929-2.929,7.678,0,10.606l9.697,9.697l-9.697,9.697   c-2.929,2.929-2.929,7.678,0,10.606c1.465,1.464,3.385,2.197,5.304,2.197s3.839-0.732,5.304-2.197l9.696-9.696l9.696,9.696   c1.465,1.464,3.385,2.197,5.304,2.197s3.839-0.732,5.304-2.197C352.959,163.248,352.959,158.499,350.03,155.57z"
   id="path6" />
	<path
   d="M256.423,113.177c1.465,1.464,3.385,2.197,5.304,2.197s3.839-0.732,5.304-2.197l9.696-9.696l9.696,9.696   c1.465,1.464,3.385,2.197,5.304,2.197s3.839-0.732,5.304-2.197c2.929-2.929,2.929-7.678,0-10.606l-9.697-9.697l9.697-9.697   c2.929-2.929,2.929-7.678,0-10.606c-2.93-2.929-7.678-2.929-10.607,0l-9.696,9.696l-9.696-9.696c-2.93-2.929-7.678-2.929-10.607,0   c-2.929,2.929-2.929,7.678,0,10.606l9.697,9.697l-9.697,9.697C253.494,105.499,253.494,110.248,256.423,113.177z"
   id="path8" />
</g>
<g
   id="g12">
</g>
<g
   id="g14">
</g>
<g
   id="g16">
</g>
<g
   id="g18">
</g>
<g
   id="g20">
</g>
<g
   id="g22">
</g>
<g
   id="g24">
</g>
<g
   id="g26">
</g>
<g
   id="g28">
</g>
<g
   id="g30">
</g>
<g
   id="g32">
</g>
<g
   id="g34">
</g>
<g
   id="g36">
</g>
<g
   id="g38">
</g>
<g
   id="g40">
</g>
</svg>
