<?xml version="1.0" encoding="iso-8859-1"?>
<!-- Uploaded to: SVG Repo, www.svgrepo.com, Generator: SVG Repo Mixer Tools -->
<svg fill="#000000" height="800px" width="800px" version="1.1" id="Layer_1" xmlns="http://www.w3.org/2000/svg" xmlns:xlink="http://www.w3.org/1999/xlink" 
	 viewBox="0 0 305.767 305.767" xml:space="preserve">
<g>
	<g>
		<g>
			<path d="M280.409,151.375c-0.948-4.872-3.148-9.324-6.444-12.724c-1.012-1.044-2.112-1.884-3.252-2.616
				c-3.008-5.416-6.472-10.588-10.368-15.484c0.244-4.14-0.656-8.26-3.316-11.472c-3.6-4.352-9.168-6.716-14.968-6.92
				c-6.408-5.26-13.384-9.972-20.884-14.02c1.132-9.552-1.32-17.9-1.48-18.42l-0.5-1.632l-1.688,0.252
				c-0.66,0.096-12.764,2.008-22.568,9.076c-3.392-1.056-6.848-1.972-10.364-2.76c-7.064-9.344-18.58-14.252-19.192-14.508
				l-1.444-0.6l-0.92,1.264c-0.244,0.34-3.296,4.62-5.596,10.7c-1.056-0.04-2.108-0.092-3.172-0.092c-2.832,0-5.632,0.12-8.42,0.28
				c-8.376-12.456-23.052-20.768-39.792-20.768c-26.032,0-47.208,20.012-47.208,44.612c0,0.692,0.08,1.36,0.116,2.044
				c-5.364,4.572-6.908,11.124-7.224,16.856c-6.212-4.704-16.416-7.332-23.4-2.42c-3.772,2.656-6.292,6.732-7.444,11.276
				c-3.088,1.66-5.592,4.096-6.904,7.428c-1.328,3.376-0.872,6.976,0.612,10.412c-2,1.764-3.576,4.004-4.592,6.724
				c-1.872,5.012-1.692,10.82,0.22,16.116c-6.812,7.74-10.296,15.928-10.216,24.404c0.344,36.7,68.872,66.452,152.888,66.452h0.616
				c60.932-0.104,115.8-15.828,139.764-40.068c8.38-8.472,12.584-17.54,12.496-26.944
				C305.641,174.359,296.289,161.839,280.409,151.375z M279.833,164.599c6.688,6.24,10.356,13.236,10.356,20.832
				c0,31.988-61.332,58.016-136.716,58.016s-136.72-26.028-136.72-58.016c0-3.392,0.768-6.66,2.184-9.8
				c1.728,1.216,3.584,2.172,5.568,2.856c-1.032,4.316-1.576,8.732-1.576,13.236c0,2.972,0.244,5.996,0.72,8.98l0.264,1.672h30.116
				c14.208,17.436,52.404,29.956,97.208,29.956h0.416c41.168-0.072,78.212-10.684,94.384-27.036c0.952-0.964,1.812-1.936,2.596-2.92
				h34.376l0.264-1.672c0.476-2.992,0.716-6.012,0.716-8.98c0-8.284-1.848-16.284-5.232-23.86
				C279.165,166.779,279.537,165.695,279.833,164.599z M116.177,102.239c0.084,0.9,0.22,1.784,0.396,2.656
				c-1.7-0.756-3.424-1.536-3.532-1.872c-0.156-0.492,0.452-0.476,0.676-0.512c0.276-0.044,0.564-0.048,0.848-0.052
				C115.065,102.451,115.629,102.419,116.177,102.239z M115.629,98.119c0.044-0.004,0.088-0.008,0.136-0.012
				c0.1-0.008,0.224-0.044,0.336-0.056c-0.016,0.216-0.024,0.432-0.032,0.648L115.629,98.119z M116.397,93.811l-0.248-0.092
				c-0.408-0.152-0.696-0.268-0.88-0.392c1.004-0.816,1.616-2.236,1.416-3.488c-0.132-0.808-0.6-1.524-1.284-1.96
				c-0.668-0.42-1.472-0.54-2.228-0.324c-0.932,0.268-1.636,0.92-2.316,1.556c-0.2,0.188-0.4,0.372-0.604,0.548
				c-0.672,0.568-1.4,0.768-1.6,0.572c-0.268-0.26,1.248-13.848,2.696-19.948c0.236-1,0.52-2.036,1.14-2.676
				c1.3-1.344,3.324-0.356,4.792,0.716c3.68,2.684,7.608,5.648,10.832,9.324c-5.704,3.704-9.888,9.536-11.436,16.368
				C116.581,93.951,116.505,93.851,116.397,93.811z M118.281,66.939c-2.848-2.072-5.34-2.256-7.016-0.52
				c-0.92,0.948-1.28,2.232-1.576,3.464c-1.472,6.188-2.448,12.472-2.908,18.688c-0.056,0.716-0.156,2.048,0.668,2.864
				c1.056,1.036,2.716,0.508,3.896-0.484c0.224-0.188,0.444-0.396,0.668-0.596c0.56-0.52,1.084-1.012,1.624-1.168
				c0.284-0.084,0.584-0.036,0.844,0.128c0.272,0.172,0.464,0.464,0.516,0.796c0.128,0.788-1.236,0.564-1.724,2.34
				c-0.488,1.776,1.468,2.564,2.28,2.86l0.232,0.084c0.232,0.088,0.44,0.34,0.516,0.668c-0.008,0.068-0.02,0.136-0.032,0.204
				c-0.128,0.076-0.34,0.116-0.668,0.144c-0.596,0.056-2.192,0.636-2.272,1.5s2.104,2.784,2.104,2.784
				c-0.248,0.048-0.548,0.056-0.916,0.064c-0.364,0.008-0.728,0.02-1.08,0.076c-1.168,0.188-2.184,1.424-2.32,2.412
				c-0.092,0.696,0.224,1.296,0.832,1.572c0,0,2.772,1.188,5.092,2.216c0.26,0.888,0.572,1.756,0.92,2.604
				c-1.62,0.3-3.232,0.612-4.824,0.952c-1.228-1.232-2.444-2.484-3.716-3.64c-0.668-0.6-1.468-1.244-2.408-1.112
				c-1.164,0.152-1.848,1.404-1.7,3.112c0.024,0.256,0.06,0.52,0.092,0.78c0.088,0.664,0.172,1.292,0.024,1.736
				c-0.084,0.248-0.256,0.364-0.388,0.416c-0.212,0.084-0.456,0.056-0.676-0.072c-0.58-0.324-0.24-1.092-0.752-2.44
				c-0.512-1.348-2.688-0.384-3.456,0.128c-0.156,0.1-0.42,0.132-0.664-0.036c-0.024-0.104,0.072-0.288,0.224-0.556
				c0.26-0.46,1.236-1.928,0.06-2.504c-1.176-0.576-2.892-0.052-2.892-0.052c0.084-0.164,0.2-0.344,0.34-0.556
				c0.172-0.26,0.344-0.524,0.48-0.804c0.472-0.976,0.076-2.416-0.596-3.044c-0.468-0.444-1.084-0.52-1.608-0.236
				c0,0-10.328,5.664-15.168,9.024c-0.34,0.24-0.852,0.592-1.084,1.256c-0.324,0.924-0.004,2.024,0.976,3.352
				c1.072,1.456,2.392,2.82,3.832,4.164c-1.336,0.552-2.664,1.104-3.968,1.684c-5.848-6.444-9.444-15.036-9.444-24.492
				c0-19.94,15.896-36.164,35.432-36.164c11.432,0,21.556,5.6,28.036,14.2c-1.568,0.532-3.084,1.2-4.524,2.004
				C126.221,72.835,122.121,69.735,118.281,66.939z M107.105,109.503c-0.032-0.236-0.064-0.472-0.084-0.704
				c-0.068-0.756,0.136-1.224,0.232-1.276c0.1,0.016,0.38,0.088,1.044,0.688c0.984,0.896,1.924,1.868,2.876,2.816
				c-1.38,0.312-2.752,0.628-4.112,0.968C107.329,111.179,107.217,110.327,107.105,109.503z M88.773,113.859
				c-0.604,0.212-1.288,0.444-1.836,0.984c-0.636,0.62-0.996,1.72-0.456,2.608c0.188,0.316,0.528,0.54,0.9,0.74
				c-0.536,0.208-1.084,0.4-1.612,0.612c-1.616-1.44-3.004-2.908-4.156-4.464c-0.856-1.164-0.78-1.656-0.736-1.784
				c0.048-0.132,0.216-0.256,0.448-0.416c4.692-3.256,9.688-6.108,14.856-8.476c0.056,0.228,0.072,0.468,0.012,0.596
				c-0.1,0.208-0.236,0.404-0.364,0.596c-0.416,0.624-1.104,2.804-0.584,3.168c0.52,0.364,3.008,0.052,3.008,0.052
				c-0.248,0.428-0.576,1.02-0.396,1.776c0.144,0.6,0.536,1.06,1.112,1.288c0.676,0.272,1.512,0.188,2.132-0.216l0.188-0.124
				c0.22-0.148,0.384-0.248,0.508-0.312c0.096,0.98,0.668,1.9,1.44,2.496c-3.352,0.916-6.624,1.936-9.832,3.028
				c0.72-1.096,1.152-2.332,1.544-3.456L88.773,113.859z M92.361,114.431c-0.256,0.5-0.556,0.964-0.924,1.36
				c-0.78,0.844-2.14,1.452-3.208,0.984c-0.172-0.072-0.264-0.152-0.296-0.2c-0.052-0.084,0.008-0.34,0.188-0.52
				c0.276-0.268,0.728-0.424,1.2-0.588L92.361,114.431z M138.377,110.971c11.596-0.556,23.26,0.38,34.652,2.804
				c5.24,1.112,10.544,2.692,13.892,6.688c3.284,3.92,3.988,9.184,4.732,14.752c0.52,3.904,1.06,7.936,2.556,11.588
				c1.184,2.896,3.72,5.392,6.164,6.068c0.484,0.132,0.96,0.2,1.424,0.2c1.024,0,1.996-0.328,2.848-0.968
				c2.488-1.86,2.504-5.156,2.524-8.072l0.008-1.008c0.036-1.888,0.804-3.852,1.82-4.676c0.432-0.348,0.864-0.464,1.352-0.368
				c1.232,0.244,1.924,1.824,2.656,3.504c0.892,2.044,1.904,4.364,4.316,4.816c3.308,0.628,4.748-2.48,6.016-5.228
				c0.584-1.264,1.188-2.576,1.928-3.472c0.756-0.916,1.936-1.472,3.24-1.52c1.28,0.028,2.504,0.416,3.316,1.26
				c0.424,0.448,0.784,1,1.168,1.588c0.492,0.756,1,1.544,1.724,2.208c3.096,2.84,6.928,1.432,10.632,0.084
				c1.824-0.672,3.68-1.312,5.424-1.464c18.26,14.104,29.26,32.216,29.26,51.956c0,2.208-0.144,4.448-0.428,6.684h-16.164
				l10.176-10.38l-1.62-1.584l-11.712,11.944l0.02,0.02h-6.252l10.172-10.38l-1.62-1.584l-11.708,11.944l0.02,0.02h-6.252
				l10.172-10.38l-1.62-1.584l-11.708,11.944l0.02,0.02h-6.252l10.172-10.38l-1.62-1.584l-11.708,11.944l0.02,0.02H27.325
				c-0.284-2.232-0.428-4.472-0.428-6.684C26.897,150.147,75.677,115.783,138.377,110.971z M135.597,107.223
				c0.092-0.104,0.172-0.208,0.272-0.308c1.872-1.872,4.328-2.452,4.328-2.452s-0.28,1.148-1.04,2.464
				C137.965,107.011,136.781,107.115,135.597,107.223z M145.305,104.467c0,0,2.052,0.496,3.832,2.012
				c-1.004,0.02-2.012,0.036-3.008,0.072C145.525,105.395,145.305,104.467,145.305,104.467z M174.481,96.919l3.384,11.004
				c-1.152-0.144-2.308-0.284-3.476-0.408c-4.792-3.032-10.816-7.928-13.728-14.484L174.481,96.919z M159.845,91.031
				c-0.028-0.088-0.08-0.168-0.108-0.26c-0.536-1.744-0.792-3.516-0.868-5.28l13.084,3.208l1.932,6.284L159.845,91.031z
				 M248.269,137.911c-1.244,0.324-2.48,0.74-3.704,1.184c-3.344,1.232-6.232,2.28-8.32,0.376c-0.512-0.468-0.92-1.1-1.356-1.768
				c-0.42-0.648-0.856-1.32-1.428-1.92c-1.26-1.316-3.092-2.06-5.04-1.96c-1.952,0.072-3.74,0.924-4.908,2.34
				c-0.928,1.128-1.596,2.572-2.24,3.968c-1.332,2.888-2.12,4.22-3.532,3.948c-1.232-0.236-1.924-1.82-2.66-3.496
				c-0.892-2.044-1.9-4.356-4.3-4.824c-1.14-0.228-2.26,0.068-3.212,0.832c-1.78,1.436-2.62,4.248-2.66,6.392l-0.012,1.044
				c-0.016,2.5-0.032,5.084-1.616,6.268c-0.676,0.508-1.432,0.628-2.308,0.396c-1.784-0.492-3.748-2.484-4.668-4.74
				c-1.384-3.384-1.904-7.272-2.408-11.032c-0.752-5.644-1.532-11.484-5.24-15.908c-3.788-4.528-9.524-6.256-15.16-7.452
				c-0.616-0.132-1.244-0.212-1.864-0.332C201.981,114.043,228.857,123.803,248.269,137.911z M245.649,202.371
				c-0.396,0.444-0.788,0.888-1.224,1.328c-15.768,15.944-52.184,26.292-92.776,26.364h-0.42
				c-43.144-0.004-80.016-11.532-94.404-27.692H245.649z M271.093,141.431c4.524,4.672,6.62,11.768,5.6,18.976
				c-0.108,0.768-0.296,1.532-0.476,2.3c-5.296-9.54-13.132-18.284-22.956-25.9C261.601,136.067,267.301,137.519,271.093,141.431z
				 M259.405,125.807c1.848,2.472,3.58,5.016,5.204,7.616c-2.756-0.692-5.568-0.9-8.184-0.836
				C257.693,130.611,258.701,128.271,259.405,125.807z M220.461,92.239c5.616,3.124,10.928,6.632,15.912,10.472
				c-1.72,0.372-3.42,0.876-5.032,1.652c-1.884-5.328-5.804-9.06-11.224-10.7C220.249,93.187,220.353,92.715,220.461,92.239z
				 M218.773,97.411c3.472,1,7.916,3.604,9.38,10.352l0.612,2.82l2.424-1.56c7.288-4.688,17.716-3.496,22.756,2.596
				c5.004,6.052,1.536,17.508-3.376,21.784l-0.86,0.748c-14.884-10.62-33.82-18.76-55.188-23.4c0.844-2.812,2.308-5.384,4.46-7.588
				C204.117,97.903,212.257,95.539,218.773,97.411z M216.093,92.899c-4.808-0.452-9.86,0.676-14.268,3.148l14.872-21.64
				C217.445,78.579,218.117,85.851,216.093,92.899z M214.145,73.115l-25.108,36.532c-1.328-0.248-2.656-0.488-4.004-0.708
				c2.564-4.888,5.596-12.628,4.892-20.748c0.156-0.248,0.292-0.504,0.46-0.748C196.409,78.675,208.045,74.679,214.145,73.115z
				 M191.229,80.439c-0.804,0.76-1.564,1.58-2.296,2.436c-0.376-1.188-0.856-2.312-1.392-3.408
				C188.781,79.767,190.005,80.103,191.229,80.439z M185.201,84.191c2.816,9.156-1.516,19.024-4.348,24.116
				c-0.38-0.052-0.756-0.12-1.136-0.172l-13.248-43.048C171.429,67.667,182.133,74.227,185.201,84.191z M164.785,65.403
				l4.188,13.616l-8.964-2.604C161.313,71.747,163.393,67.755,164.785,65.403z M159.597,78.067l9.976,2.896l1.796,5.844
				l-12.512-3.068C158.913,81.803,159.181,79.895,159.597,78.067z M154.245,75.391c0.636-0.004,1.26,0.036,1.884,0.064
				c-0.144,0.52-0.264,1.052-0.384,1.588c-1.036-0.608-2.112-1.132-3.228-1.596C153.097,75.439,153.665,75.391,154.245,75.391z
				 M155.185,80.023c-0.54,3.816-0.48,7.884,0.76,11.912c0.224,0.732,0.512,1.432,0.804,2.128l-0.82-0.132
				c0,0-0.54-0.088-1.392-0.088c-1.112,0-2.788,0.152-4.464,0.864c-2.848,1.216-4.54,3.592-4.612,3.692l-1.568,2.228l2.704,0.432
				c0,0,0.54,0.088,1.392,0.088c1.112,0,2.788-0.152,4.464-0.864c2.848-1.216,4.54-3.592,4.612-3.692l0.516-0.732
				c2.248,4.436,5.636,8.096,9.112,10.984c-4.352-0.288-8.764-0.436-13.228-0.436c-0.644,0-1.28,0.024-1.92,0.032
				c-0.236-0.24-0.436-0.452-0.704-0.72c-2.188-2.188-5.024-2.876-5.144-2.904l-2.676-0.628l0.628,2.676
				c0.012,0.06,0.192,0.792,0.636,1.784c-1.048,0.048-2.1,0.092-3.144,0.156c0.496-1.068,0.696-1.876,0.712-1.94l0.628-2.676
				l-2.676,0.628c-0.12,0.028-2.952,0.716-5.144,2.904c-0.548,0.548-1,1.136-1.376,1.712c-4.228,0.432-8.396,0.992-12.48,1.68
				c-1.244-2.844-1.968-5.964-1.968-9.264c0-13.036,10.604-23.64,23.64-23.64C147.173,76.207,151.501,77.651,155.185,80.023z
				 M155.673,95.611c0,0-1.452,2.064-3.888,3.104c-1.408,0.604-2.84,0.728-3.792,0.728c-0.696,0-1.136-0.068-1.136-0.068
				s1.452-2.064,3.888-3.104c1.408-0.604,2.84-0.728,3.796-0.728C155.229,95.547,155.673,95.611,155.673,95.611z M106.033,54.935
				c14.508,0,27.292,6.804,35.128,17.144c-1.708,0.152-3.42,0.3-5.108,0.512c-7.012-9.036-17.804-14.888-29.96-14.888
				c-21.1,0-38.268,17.496-38.268,39c0,9.876,3.66,18.86,9.624,25.728c-0.84,0.396-1.688,0.784-2.512,1.192
				c-7.472-7.296-12.116-17.164-12.116-28.072C62.825,73.155,82.209,54.935,106.033,54.935z M30.617,115.299
				c1.884-1.332,4.18-1.896,6.58-1.896c5.764,0,12.136,3.248,14.876,6.94l3.824,5.148l-0.22-6.408
				c-0.252-7.368,1-12.624,3.84-16.296c1.528,8.676,5.72,16.484,11.756,22.712c-5.608,2.98-10.82,6.26-15.6,9.796
				c-2.672-4.912-5.956-9.608-11.056-12.224c-5.012-2.568-12.416-3.312-18.812-1.664C26.893,118.955,28.485,116.799,30.617,115.299z
				 M22.029,127.435c6.728-5.34,18.972-3.208,24.872,2.248c2.524,2.332,4.032,5.216,5.44,8.16c-1.904,1.524-3.708,3.096-5.448,4.704
				l-10.276-15.952l-1.908,1.228l9.092,14.112l-11.336-5.168l0.012-0.008l-4.48-8.072l-1.984,1.1l3,5.404l-8.744-3.98l-0.94,2.064
				l25.224,11.488c-3.004,2.968-5.732,6.064-8.16,9.272c-0.648-0.096-1.292-0.188-1.976-0.36
				C26.061,151.579,10.041,136.955,22.029,127.435z M13.729,149.263c0.548-1.464,1.44-3.076,2.8-4.52
				c3.516,5.344,9.156,9.86,13.824,11.768c1.152,0.472,2.312,0.836,3.48,1.124c-3.612,5.392-6.416,11.068-8.264,16.968
				c-2.908-1.04-5.504-2.732-7.632-5.16C13.089,163.915,11.357,155.615,13.729,149.263z M290.449,211.979
				c-23.26,23.52-77.02,38.784-136.964,38.892c-82.032,0.084-149.2-27.904-149.528-62.524c-0.064-6.992,2.688-13.844,8.088-20.428
				c0.832,1.468,1.764,2.884,2.888,4.164c0.696,0.792,1.448,1.5,2.216,2.176c-1.716,3.568-2.656,7.292-2.656,11.172
				c0,33.24,62.348,60.28,138.988,60.28c76.636,0,138.988-27.044,138.988-60.28c0-8.708-4.248-16.608-12.02-23.524
				c0.056-0.312,0.164-0.62,0.208-0.932c0.228-1.612,0.28-3.212,0.24-4.8c13.112,9.3,20.792,20.112,20.9,31.692
				C301.877,196.171,298.057,204.283,290.449,211.979z"/>
			<path d="M101.509,64.239c-0.656-0.836-1.764-1.084-3.316-0.72c-3.304,0.776-6.584,2.364-10.332,5
				c-3.468,2.44-6.076,4.912-7.972,7.552c-4.64,6.456-5.676,14.64-6.588,21.86c-0.428,3.364,0.4,5.592,2.332,6.276
				c0.388,0.136,0.78,0.196,1.168,0.196c0.728,0,1.444-0.192,2.088-0.388c5.036-1.504,9.968-3.48,14.66-5.884
				c0.552-0.284,1.584-0.812,1.868-1.892c0.344-1.344-0.688-2.532-1.868-3.116c-0.22-0.104-0.452-0.208-0.684-0.304
				c-0.568-0.24-1.104-0.464-1.404-0.844c-0.364-0.456-0.296-1.26,0.144-1.652c0.436-0.392,1.216,0.624,2.168,0.568
				c0.952-0.06,1.488-2.46,1.396-3.332l-0.024-0.248c-0.036-0.396,0.144-0.808,0.148-0.872c0.084,0.052,0.24,0.344,0.332,0.516
				c0.276,0.516,1.428,1.62,2.24,1.368s1.116-2.8,1.116-2.8c0.064,0.124,0.128,0.264,0.2,0.416c0.14,0.308,0.284,0.616,0.456,0.892
				c0.524,0.848,1.768,1.332,2.712,1.036c0.68-0.208,0.736-1.464,0.736-1.464c0.144-6.836-0.2-13.736-1.016-20.508
				C102.013,65.455,101.933,64.795,101.509,64.239z M101.385,86.167c-0.124-0.048-0.244-0.128-0.304-0.228
				c-0.136-0.22-0.248-0.464-0.356-0.708c-0.344-0.748-1.776-2.792-2.552-2.272c-0.776,0.516-1.176,2.956-1.176,2.956
				c-0.248-0.432-0.592-0.92-1.22-1.1c-0.524-0.148-1.04-0.044-1.464,0.308c-0.688,0.576-0.928,1.62-0.856,2.352l0.024,0.264
				c0.028,0.256,0.06,0.568,0.056,0.824c-1-0.404-2.224-0.244-3.052,0.488c-1.12,0.992-1.276,2.82-0.348,3.984
				c0.568,0.716,1.364,1.056,2.068,1.352c0.204,0.084,0.408,0.172,0.596,0.264c0.556,0.272,1.072,0.78,0.972,1.16
				c-0.088,0.34-0.704,0.656-0.996,0.804c-4.6,2.356-9.436,4.296-14.372,5.768c-0.772,0.232-1.568,0.44-2.204,0.22
				c-1.48-0.524-1.396-3.024-1.212-4.464c0.888-7.016,1.896-14.968,6.284-21.08c1.78-2.484,4.256-4.82,7.568-7.152
				c3.56-2.504,6.656-4.012,9.74-4.736c0.34-0.08,0.636-0.116,0.884-0.116c0.34,0,0.584,0.076,0.696,0.22
				c0.128,0.164,0.172,0.468,0.216,0.82C101.177,72.727,101.517,79.475,101.385,86.167z"/>
			<path d="M121.309,79.031c0.228-0.852-0.02-1.984-0.94-2.48c-0.392-0.208-0.848-0.272-1.376-0.212
				c-2.04,0.252-3.348,2.16-3.704,3.82c-0.36,1.7-0.008,3.416,0.304,4.928l4.636-4.276
				C120.621,80.351,121.113,79.779,121.309,79.031z M119.665,78.595c-0.1,0.38-0.42,0.752-0.728,1.116l-2.084,2.444
				c-0.032-0.56-0.008-1.108,0.104-1.644c0.24-1.124,1.088-2.34,2.256-2.484c0.06-0.008,0.112-0.012,0.156-0.012
				c0.124,0,0.18,0.024,0.196,0.036C119.649,78.099,119.729,78.347,119.665,78.595z"/>
			<path d="M78.777,91.083c-0.848,0.256-1.672,1.068-1.612,2.104c0.028,0.436,0.212,0.872,0.548,1.284
				c0.844,1.04,2.116,1.444,3.34,1.444c0.66,0,1.304-0.116,1.86-0.316c1.644-0.592,2.912-1.796,4.028-2.86l-6.08-1.684
				C80.265,90.971,79.521,90.859,78.777,91.083z M82.333,94.003c-1.084,0.4-2.564,0.308-3.3-0.596
				c-0.152-0.188-0.168-0.288-0.168-0.316c-0.008-0.1,0.164-0.304,0.408-0.38c0.14-0.044,0.296-0.06,0.46-0.06
				c0.276,0,0.58,0.048,0.872,0.088l3.176,0.48C83.325,93.543,82.845,93.819,82.333,94.003z"/>
			<path d="M85.085,79.091c-0.772-0.416-1.928-0.436-2.632,0.34c-0.292,0.328-0.472,0.764-0.524,1.288
				c-0.228,2.044,1.316,3.756,2.848,4.488c1.584,0.756,3.328,0.816,4.864,0.868l-3.072-5.512
				C86.213,80.075,85.773,79.471,85.085,79.091z M85.505,83.679c-1.036-0.496-2.02-1.604-1.888-2.772
				c0.024-0.24,0.088-0.324,0.1-0.34c0.032-0.04,0.116-0.064,0.216-0.064c0.104,0,0.224,0.028,0.336,0.084
				c0.348,0.192,0.64,0.588,0.92,0.976l1.884,2.592C86.529,84.059,85.993,83.907,85.505,83.679z"/>
			<path d="M94.549,70.535c-0.432,0.052-0.852,0.256-1.248,0.616c-1.528,1.384-1.504,3.692-0.84,5.248
				c0.68,1.6,1.952,2.804,3.076,3.864l1.344-6.16c0.06-0.6,0.132-1.348-0.136-2.084C96.437,71.191,95.577,70.431,94.549,70.535z
				 M95.189,73.939l-0.304,3.2c-0.348-0.436-0.644-0.904-0.86-1.404c-0.452-1.06-0.452-2.54,0.416-3.324
				c0.208-0.192,0.292-0.188,0.32-0.192c0.1,0,0.304,0.152,0.388,0.384C95.281,72.975,95.233,73.467,95.189,73.939z"/>
			<path d="M142.485,98.771l1.448-2.336c0.064-0.104,1.584-2.592,1.584-5.688s-1.52-5.584-1.584-5.688l-1.448-2.336l-1.448,2.336
				c-0.064,0.104-1.584,2.592-1.584,5.688s1.52,5.584,1.584,5.688L142.485,98.771z M142.485,85.955c0,0,1.328,2.148,1.328,4.796
				s-1.328,4.796-1.328,4.796s-1.328-2.148-1.328-4.796S142.485,85.955,142.485,85.955z"/>
			<path d="M132.513,100.287c1.676,0.716,3.352,0.864,4.464,0.864c0.852,0,1.392-0.088,1.392-0.088l2.692-0.428l-1.556-2.232
				c-0.072-0.1-1.764-2.476-4.612-3.692c-1.676-0.716-3.352-0.864-4.464-0.864c-0.848,0-1.392,0.088-1.392,0.088l-2.692,0.428
				l1.556,2.232C127.973,96.695,129.665,99.071,132.513,100.287z M130.433,95.547c0.956,0,2.384,0.128,3.796,0.728
				c2.436,1.04,3.888,3.104,3.888,3.104s-0.448,0.068-1.14,0.068c-0.956,0-2.384-0.128-3.792-0.728
				c-2.436-1.04-3.888-3.104-3.888-3.104S129.741,95.547,130.433,95.547z"/>
			<circle cx="58.621" cy="153.663" r="1.728"/>
			<circle cx="186.621" cy="137.663" r="1.728"/>
			<circle cx="206.621" cy="177.663" r="1.728"/>
			<circle cx="219.141" cy="156.167" r="1.728"/>
			<circle cx="234.661" cy="168.367" r="1.728"/>
			<circle cx="48.537" cy="175.927" r="1.728"/>
			<circle cx="80.845" cy="175.927" r="1.728"/>
			<circle cx="83.781" cy="137.663" r="1.728"/>
			<circle cx="260.501" cy="168.367" r="1.728"/>
		</g>
	</g>
</g>
</svg>